<svg width="110" height="52" viewBox="0 0 110 52" fill="none" xmlns="http://www.w3.org/2000/svg">
<rect width="110" height="52" fill="#E5E5E5"/>
<g id="Desktop" clip-path="url(#clip0_2_1369)">
<rect width="1440" height="2920" transform="translate(-1280 -2501)" fill="white"/>
<path id="Rectangle" d="M-1280 -398H160V102H-1280V-398Z" fill="#191D2C"/>
<path id="&#208;&#167;&#208;&#184;&#209;&#130;&#208;&#176;&#209;&#130;&#209;&#140;" d="M34.1668 33V27.414C33.8628 27.4773 33.5271 27.528 33.1598 27.566C32.8051 27.5913 32.3808 27.604 31.8868 27.604C31.1775 27.604 30.5441 27.5343 29.9868 27.395C29.4295 27.2557 28.9545 27.0277 28.5618 26.711C28.1818 26.3817 27.8841 25.9573 27.6688 25.438C27.4661 24.9187 27.3648 24.2853 27.3648 23.538V20.536H28.9228V23.538C28.9228 24.0573 28.9861 24.4943 29.1128 24.849C29.2521 25.2037 29.4548 25.4887 29.7208 25.704C29.9868 25.9193 30.3098 26.0713 30.6898 26.16C31.0825 26.2487 31.5321 26.293 32.0388 26.293C32.5075 26.293 32.9128 26.2803 33.2548 26.255C33.6095 26.217 33.9135 26.1663 34.1668 26.103V20.536H35.7438V33H34.1668ZM39.0053 33V23.766H40.5253V27.604C40.5253 28.098 40.5063 28.6427 40.4683 29.238C40.4429 29.8207 40.4113 30.4097 40.3733 31.005H40.4493C40.6266 30.7137 40.8293 30.3843 41.0573 30.017C41.2979 29.6497 41.5006 29.3203 41.6653 29.029L45.1613 23.766H46.6243V33H45.1043V29.162C45.1043 28.668 45.1169 28.1297 45.1423 27.547C45.1803 26.9517 45.2183 26.35 45.2563 25.742H45.1803C45.0029 26.0333 44.7939 26.369 44.5533 26.749C44.3253 27.1163 44.1289 27.4393 43.9643 27.718L40.4493 33H39.0053ZM51.7814 33V25.039H48.6844V23.766H56.4364V25.039H53.3394V33H51.7814ZM60.2075 33.228C59.4348 33.228 58.7888 33 58.2695 32.544C57.7628 32.088 57.5095 31.442 57.5095 30.606C57.5095 29.5927 57.9592 28.82 58.8585 28.288C59.7578 27.7433 61.1955 27.3633 63.1715 27.148C63.1715 26.8567 63.1398 26.5717 63.0765 26.293C63.0258 26.0143 62.9308 25.7673 62.7915 25.552C62.6522 25.3367 62.4558 25.1657 62.2025 25.039C61.9618 24.8997 61.6515 24.83 61.2715 24.83C60.7395 24.83 60.2392 24.9313 59.7705 25.134C59.3018 25.3367 58.8838 25.5647 58.5165 25.818L57.9085 24.735C58.3392 24.4563 58.8648 24.1903 59.4855 23.937C60.1062 23.671 60.7902 23.538 61.5375 23.538C62.6648 23.538 63.4818 23.8863 63.9885 24.583C64.4952 25.267 64.7485 26.1853 64.7485 27.338V33H63.4565L63.3235 31.898H63.2665C62.8232 32.2653 62.3482 32.582 61.8415 32.848C61.3348 33.1013 60.7902 33.228 60.2075 33.228ZM60.6635 31.974C61.1068 31.974 61.5248 31.8727 61.9175 31.67C62.3102 31.4547 62.7282 31.1443 63.1715 30.739V28.174C62.3988 28.2753 61.7465 28.3957 61.2145 28.535C60.6952 28.6743 60.2708 28.839 59.9415 29.029C59.6248 29.219 59.3905 29.4407 59.2385 29.694C59.0992 29.9347 59.0295 30.2007 59.0295 30.492C59.0295 31.024 59.1878 31.404 59.5045 31.632C59.8212 31.86 60.2075 31.974 60.6635 31.974ZM69.4269 33V25.039H66.3299V23.766H74.0819V25.039H70.9849V33H69.4269ZM76.1332 33V23.766H77.6912V27.167H79.4392C79.9839 27.167 80.4779 27.224 80.9212 27.338C81.3772 27.452 81.7635 27.6293 82.0802 27.87C82.4095 28.098 82.6629 28.3957 82.8402 28.763C83.0175 29.1177 83.1062 29.5483 83.1062 30.055C83.1062 30.5743 83.0175 31.0177 82.8402 31.385C82.6629 31.7523 82.4095 32.0563 82.0802 32.297C81.7635 32.5377 81.3772 32.715 80.9212 32.829C80.4779 32.943 79.9839 33 79.4392 33H76.1332ZM77.6912 31.746H79.2682C80.8009 31.746 81.5672 31.1823 81.5672 30.055C81.5672 29.4723 81.3772 29.048 80.9972 28.782C80.6299 28.516 80.0535 28.383 79.2682 28.383H77.6912V31.746Z" fill="#E1FD2C"/>
<path id="Ellipse 1" d="M109.5 26C109.5 32.8735 103.588 39.2476 93.6772 43.9327C83.8047 48.5997 70.1308 51.5 55 51.5C39.8692 51.5 26.1953 48.5997 16.3228 43.9327C6.41185 39.2476 0.5 32.8735 0.5 26C0.5 19.1265 6.41185 12.7524 16.3228 8.06726C26.1953 3.40026 39.8692 0.5 55 0.5C70.1308 0.5 83.8047 3.40026 93.6772 8.06726C103.588 12.7524 109.5 19.1265 109.5 26Z" stroke="#E1FD2C"/>
</g>
<defs>
<clipPath id="clip0_2_1369">
<rect width="1440" height="2920" fill="white" transform="translate(-1280 -2501)"/>
</clipPath>
</defs>
</svg>
